<?xml version="1.0" standalone="no"?>
<!DOCTYPE svg PUBLIC "-//W3C//DTD SVG 20010904//EN"
 "http://www.w3.org/TR/2001/REC-SVG-20010904/DTD/svg10.dtd">
<svg version="1.0" xmlns="http://www.w3.org/2000/svg"
 width="626.000000pt" height="626.000000pt" viewBox="0 0 626.000000 626.000000"
 preserveAspectRatio="xMidYMid meet">

<g transform="translate(0.000000,626.000000) scale(0.100000,-0.100000)"
fill="#000000" stroke="none">
<path d="M3020 5153 c-86 -8 -188 -26 -220 -40 -52 -21 -80 -51 -111 -119
l-28 -61 -87 -27 c-262 -82 -485 -239 -620 -436 l-49 -72 -7 53 c-3 30 -7 90
-8 134 -1 44 -5 104 -9 134 -13 88 -63 106 -130 46 -63 -58 -76 -102 -104
-367 l-25 -237 -35 -42 c-61 -71 -69 -108 -74 -344 -5 -218 4 -332 32 -386 25
-46 74 -98 124 -127 39 -23 59 -27 143 -30 97 -4 99 -5 120 -36 12 -17 53 -64
91 -103 l70 -73 -105 -108 c-315 -326 -477 -599 -478 -803 0 -140 110 -251
251 -251 103 0 235 78 369 217 35 37 66 63 68 56 14 -41 99 -200 143 -268 219
-332 484 -503 781 -503 131 0 222 21 343 80 248 121 482 410 615 760 l32 85
106 72 c481 327 737 670 657 880 -23 59 -73 115 -125 138 -30 13 -39 23 -35
34 19 48 27 168 23 365 -4 244 -10 273 -77 348 -31 36 -31 36 -56 270 -14 132
-32 252 -41 277 -10 25 -35 64 -57 88 -46 50 -81 56 -115 21 -18 -20 -22 -43
-31 -197 -6 -96 -13 -176 -14 -178 -2 -1 -26 30 -53 69 -133 195 -348 347
-617 434 l-88 28 -34 71 c-19 38 -46 78 -59 88 -63 45 -311 76 -476 60z m327
-78 c43 -8 89 -23 103 -34 25 -18 66 -78 58 -86 -2 -2 -46 3 -98 12 -129 22
-439 22 -570 0 -52 -9 -96 -14 -98 -12 -8 8 33 68 58 87 14 10 57 25 95 32 97
19 353 20 452 1z m133 -183 c538 -114 856 -420 934 -901 42 -253 20 -443 -71
-625 -113 -226 -295 -379 -564 -474 -283 -100 -694 -126 -1049 -66 -392 66
-685 259 -820 537 -60 125 -81 212 -87 365 -18 417 143 762 453 968 166 111
360 178 629 218 17 2 131 3 255 1 178 -3 245 -7 320 -23z m-1690 -374 c11
-189 4 -223 -53 -258 -30 -19 -32 -19 -35 -3 -6 40 38 373 53 403 9 18 18 30
21 28 2 -3 8 -79 14 -170z m2706 141 c14 -28 53 -313 54 -392 l0 -28 -29 17
c-16 9 -39 35 -51 56 -18 33 -21 49 -16 101 3 34 8 110 12 170 3 59 8 107 10
107 2 0 11 -14 20 -31z m-2691 -516 c-30 -80 -60 -359 -50 -463 11 -107 43
-240 75 -308 16 -35 30 -69 30 -75 0 -20 -123 2 -170 31 -73 45 -100 100 -112
228 -6 60 -8 177 -5 261 4 125 9 159 27 199 32 73 75 112 150 135 45 13 63 11
55 -8z m2746 -14 c43 -21 86 -70 107 -119 19 -46 27 -312 14 -451 -14 -142
-43 -198 -126 -241 -50 -26 -162 -38 -153 -17 84 196 102 280 101 469 -1 92
-8 180 -19 240 -32 171 -32 153 6 145 19 -4 50 -16 70 -26z m218 -842 c40 -37
64 -102 56 -155 -23 -152 -171 -350 -406 -542 -97 -79 -261 -200 -271 -200 -3
0 1 30 8 68 17 88 17 250 0 332 -8 36 -26 92 -40 124 l-26 59 22 15 c13 8 73
65 135 127 l111 112 89 5 c96 4 150 26 202 82 23 24 25 25 60 10 20 -8 47 -25
60 -37z m-2619 -332 c0 -4 -7 -19 -15 -35 -27 -52 -55 -192 -55 -276 0 -99 21
-229 56 -346 l27 -86 -44 -53 c-102 -121 -279 -239 -358 -239 -81 1 -161 63
-182 142 -26 97 38 277 162 459 121 177 409 482 409 434z m148 -64 c220 -110
480 -161 823 -161 359 0 605 48 832 162 75 37 80 38 93 21 44 -58 70 -231 54
-360 -16 -131 -80 -357 -108 -385 -4 -4 -54 6 -111 23 -58 16 -127 35 -153 40
-40 9 -48 14 -43 27 4 10 9 47 12 83 5 58 3 72 -18 109 -52 92 -151 112 -554
113 -281 0 -420 -13 -484 -46 -77 -39 -108 -129 -80 -230 6 -22 8 -41 6 -44
-12 -11 -303 -81 -310 -74 -14 14 -74 202 -92 286 -19 90 -22 254 -6 332 9 47
48 143 57 143 3 0 39 -17 82 -39z m1107 -401 c140 -12 177 -22 205 -57 29 -38
25 -84 -16 -165 -111 -220 -256 -318 -469 -318 -166 0 -296 64 -392 193 -54
73 -113 196 -113 236 0 37 32 77 74 91 81 26 490 38 711 20z m-807 -332 c3
-13 23 -57 44 -100 63 -126 178 -238 285 -278 79 -30 190 -42 273 -30 194 28
326 133 423 340 22 47 41 87 43 89 5 6 88 -16 197 -51 113 -36 110 -26 38
-153 -70 -121 -149 -222 -256 -323 -103 -99 -177 -147 -283 -186 -189 -68
-386 -52 -576 47 -149 77 -365 317 -467 520 -17 32 -29 60 -27 62 10 8 260 81
291 84 5 1 12 -9 15 -21z"/>
<path d="M2860 4525 c-388 -53 -663 -202 -804 -434 -19 -31 -49 -100 -67 -152
-27 -79 -33 -114 -37 -215 -4 -104 -2 -132 16 -191 55 -179 194 -303 402 -360
99 -27 385 -25 544 5 149 28 271 28 417 1 67 -12 178 -23 269 -26 130 -4 170
-2 252 15 123 25 216 71 294 144 105 98 154 218 154 375 0 460 -329 762 -913
838 -141 18 -394 18 -527 0z m585 -80 c147 -26 292 -73 399 -128 82 -42 117
-67 187 -137 70 -69 94 -101 127 -170 23 -47 44 -98 47 -115 4 -20 -1 -14 -15
19 -24 57 -74 133 -125 193 -125 147 -387 264 -675 302 -359 48 -740 -6 -987
-139 -173 -93 -269 -197 -351 -380 -11 -24 -11 -24 -5 5 3 17 24 68 46 114 94
200 316 349 621 418 59 13 143 28 185 33 115 13 441 5 546 -15z m-700 -596
c59 -28 125 -102 125 -140 0 -39 -38 -64 -72 -48 -14 6 -32 23 -41 39 -32 54
-128 76 -201 46 -18 -8 -48 -32 -66 -55 -69 -85 -148 -28 -91 66 21 34 88 84
136 101 54 19 160 14 210 -9z m976 6 c54 -19 105 -58 130 -99 57 -93 -23 -150
-91 -65 -38 47 -82 69 -141 69 -53 0 -99 -22 -124 -61 -37 -57 -97 -59 -111
-3 -12 46 66 136 141 162 45 16 147 14 196 -3z"/>
</g>
</svg>
